<svg version="1.2" baseProfile="tiny-ps" xmlns="http://www.w3.org/2000/svg" viewBox="0 0 323 309" width="323" height="309">
	<title>Add cards-svg</title>
	<defs>
		<linearGradient id="grd1" gradientUnits="userSpaceOnUse"  x1="65.92" y1="-4.284" x2="329.408" y2="296.378">
			<stop offset="0" stop-color="#f3e4de"  />
			<stop offset="0.294" stop-color="#e45f83"  />
			<stop offset="0.628" stop-color="#9d5bff"  />
			<stop offset="1" stop-color="#6bcdf7"  />
		</linearGradient>
	</defs>
	<style>
		tspan { white-space:pre }
		.shp0 { fill: url(#grd1) } 
		.shp1 { fill: none;stroke: #d1d1d1 } 
		.shp2 { fill: #ffffff } 
		.shp3 { opacity: 0.529;fill: #ffffff } 
		.shp4 { fill: none;stroke: #ffffff;stroke-linecap:round;stroke-width: 3 } 
		.shp5 { fill: none;stroke: #ffffff;stroke-linecap:round;stroke-linejoin:round;stroke-width: 3 } 
	</style>
	<g id="Add_cards">
		<g id="Group_39334">
			<g id="Layer">
				<g id="Rectangle_16772-2">
					<path id="Layer" class="shp0" d="M111 50C111 40.61 118.61 33 128 33L278 33C287.39 33 295 40.61 295 50L295 255C295 264.39 287.39 272 278 272L128 272C118.61 272 111 264.39 111 255L111 50Z" />
					<path id="Layer" class="shp1" d="M111.5 50C111.5 40.89 118.89 33.5 128 33.5L278 33.5C287.11 33.5 294.5 40.89 294.5 50L294.5 255C294.5 264.11 287.11 271.5 278 271.5L128 271.5C118.89 271.5 111.5 264.11 111.5 255L111.5 50Z" />
				</g>
			</g>
			<g id="Group_39326">
				<path id="Path_95103" fill-rule="evenodd" class="shp2" d="M190.1 63.39L191.45 63.39L191.45 72L190.1 72L190.1 63.39ZM197.38 72L197.38 68.71C197.38 67.83 196.95 67.25 196.08 67.25C195.89 67.24 195.71 67.28 195.53 67.36C195.36 67.43 195.2 67.54 195.07 67.68C194.94 67.83 194.85 67.99 194.79 68.17C194.73 68.35 194.71 68.54 194.73 68.73L194.73 72L193.42 72L193.42 66.13L194.7 66.13L194.7 66.92C194.8 66.77 194.92 66.64 195.05 66.53C195.18 66.41 195.32 66.31 195.48 66.23C195.64 66.15 195.8 66.09 195.97 66.05C196.14 66.02 196.32 66 196.49 66C196.8 65.98 197.11 66.04 197.39 66.15C197.68 66.27 197.94 66.45 198.15 66.68C198.36 66.9 198.51 67.17 198.61 67.47C198.7 67.76 198.73 68.07 198.69 68.38L198.69 72L197.38 72ZM203.05 72.1C202.85 72.11 202.64 72.09 202.45 72.05C202.25 72.02 202.05 71.96 201.87 71.89C201.68 71.81 201.5 71.72 201.33 71.61C201.17 71.49 201.01 71.37 200.87 71.22C200.73 71.08 200.6 70.93 200.49 70.76C200.37 70.59 200.28 70.41 200.2 70.22C200.13 70.04 200.07 69.84 200.04 69.65C200 69.45 199.98 69.25 199.99 69.05C199.99 68.85 200.01 68.65 200.04 68.45C200.08 68.26 200.14 68.07 200.21 67.88C200.29 67.7 200.38 67.52 200.49 67.36C200.6 67.19 200.73 67.04 200.87 66.9C201.01 66.75 201.16 66.62 201.33 66.51C201.5 66.39 201.68 66.3 201.86 66.22C202.05 66.14 202.24 66.08 202.44 66.05C202.64 66.01 202.84 65.99 203.05 66C203.33 65.98 203.62 66.01 203.89 66.09C204.17 66.16 204.43 66.28 204.66 66.44C204.9 66.6 205.11 66.79 205.29 67.02C205.46 67.24 205.6 67.5 205.69 67.77L204.57 68.27C204.52 68.11 204.45 67.96 204.36 67.82C204.26 67.68 204.14 67.56 204.01 67.47C203.87 67.37 203.72 67.3 203.56 67.25C203.4 67.2 203.23 67.18 203.06 67.19C202.95 67.19 202.83 67.2 202.72 67.22C202.61 67.25 202.5 67.28 202.39 67.32C202.29 67.37 202.19 67.42 202.09 67.49C202 67.55 201.91 67.63 201.83 67.71C201.75 67.8 201.67 67.89 201.61 68C201.55 68.1 201.49 68.21 201.45 68.32C201.41 68.43 201.38 68.55 201.36 68.67C201.34 68.79 201.33 68.91 201.33 69.03C201.33 69.15 201.34 69.28 201.36 69.4C201.38 69.52 201.41 69.64 201.45 69.76C201.49 69.87 201.55 69.98 201.61 70.09C201.67 70.19 201.75 70.29 201.83 70.38C201.91 70.47 202 70.55 202.09 70.61C202.19 70.68 202.29 70.74 202.39 70.78C202.5 70.83 202.61 70.86 202.73 70.88C202.84 70.9 202.96 70.91 203.07 70.91C203.24 70.92 203.41 70.9 203.57 70.85C203.73 70.8 203.88 70.73 204.02 70.63C204.16 70.53 204.28 70.41 204.37 70.27C204.47 70.14 204.54 69.98 204.59 69.82L205.73 70.33C205.69 70.45 205.63 70.57 205.57 70.69C205.51 70.8 205.44 70.91 205.36 71.02C205.28 71.12 205.19 71.22 205.1 71.31C205.01 71.41 204.91 71.49 204.8 71.57C204.67 71.66 204.54 71.74 204.4 71.81C204.26 71.88 204.12 71.94 203.97 71.99C203.82 72.03 203.67 72.06 203.51 72.08C203.36 72.1 203.2 72.11 203.05 72.1ZM209.7 66C209.9 66 210.1 66.01 210.3 66.05C210.5 66.08 210.69 66.14 210.88 66.22C211.06 66.29 211.24 66.38 211.41 66.49C211.58 66.6 211.73 66.73 211.88 66.87C212.02 67.01 212.15 67.16 212.27 67.32C212.38 67.49 212.48 67.67 212.56 67.85C212.63 68.04 212.69 68.23 212.73 68.43C212.76 68.62 212.78 68.82 212.78 69.03C212.78 69.23 212.76 69.43 212.73 69.63C212.69 69.83 212.63 70.03 212.56 70.21C212.48 70.4 212.38 70.58 212.27 70.75C212.15 70.92 212.02 71.07 211.88 71.21C211.73 71.36 211.58 71.49 211.41 71.6C211.24 71.71 211.06 71.8 210.87 71.88C210.68 71.95 210.49 72.01 210.29 72.05C210.09 72.08 209.89 72.1 209.69 72.09C209.48 72.1 209.28 72.08 209.08 72.04C208.88 72.01 208.69 71.95 208.5 71.88C208.31 71.8 208.13 71.71 207.96 71.59C207.79 71.48 207.63 71.36 207.49 71.21C207.34 71.08 207.21 70.92 207.1 70.76C206.98 70.59 206.88 70.41 206.81 70.23C206.73 70.04 206.67 69.85 206.64 69.65C206.6 69.45 206.58 69.25 206.59 69.05C206.58 68.85 206.6 68.64 206.64 68.45C206.68 68.25 206.74 68.05 206.81 67.87C206.89 67.68 206.99 67.5 207.11 67.34C207.22 67.17 207.35 67.02 207.5 66.88C207.64 66.74 207.8 66.61 207.97 66.5C208.14 66.39 208.32 66.29 208.51 66.22C208.7 66.14 208.9 66.09 209.09 66.05C209.29 66.01 209.5 66 209.7 66ZM208.2 68.02C208.14 68.12 208.09 68.22 208.05 68.33C208.01 68.45 207.98 68.56 207.96 68.68C207.94 68.79 207.93 68.91 207.94 69.03C207.93 69.15 207.94 69.27 207.96 69.39C207.98 69.51 208.02 69.63 208.06 69.74C208.1 69.86 208.15 69.97 208.22 70.07C208.28 70.17 208.35 70.27 208.43 70.36C208.51 70.45 208.6 70.53 208.7 70.6C208.79 70.67 208.9 70.73 209.01 70.78C209.12 70.82 209.23 70.86 209.35 70.88C209.47 70.9 209.59 70.91 209.71 70.91C209.83 70.92 209.94 70.91 210.06 70.89C210.18 70.86 210.29 70.83 210.4 70.78C210.51 70.74 210.61 70.68 210.71 70.61C210.81 70.54 210.89 70.46 210.97 70.37C211.05 70.28 211.12 70.18 211.18 70.08C211.25 69.98 211.3 69.87 211.34 69.76C211.38 69.64 211.41 69.53 211.43 69.41C211.45 69.29 211.46 69.17 211.46 69.05C211.46 68.93 211.45 68.81 211.43 68.69C211.41 68.57 211.38 68.46 211.33 68.34C211.29 68.23 211.24 68.12 211.17 68.02C211.11 67.92 211.04 67.82 210.96 67.73C210.88 67.64 210.79 67.56 210.69 67.49C210.6 67.43 210.49 67.37 210.38 67.32C210.27 67.27 210.16 67.24 210.04 67.22C209.93 67.2 209.81 67.19 209.69 67.19C209.57 67.19 209.45 67.2 209.34 67.22C209.22 67.24 209.1 67.28 208.99 67.32C208.88 67.37 208.78 67.43 208.68 67.5C208.58 67.56 208.5 67.64 208.41 67.73C208.34 67.82 208.27 67.91 208.2 68.02ZM218.01 72L218.01 68.7C218.01 67.82 217.61 67.23 216.74 67.23C216.56 67.24 216.37 67.28 216.2 67.36C216.03 67.44 215.88 67.55 215.76 67.69C215.64 67.83 215.55 68 215.5 68.18C215.44 68.36 215.43 68.55 215.45 68.73L215.45 72L214.15 72L214.15 66.13L215.42 66.13L215.42 66.92C215.52 66.78 215.63 66.65 215.76 66.53C215.89 66.42 216.03 66.32 216.18 66.24C216.33 66.16 216.5 66.1 216.66 66.05C216.83 66.01 217 65.99 217.17 65.99C217.35 65.98 217.54 65.99 217.71 66.03C217.89 66.07 218.06 66.13 218.22 66.21C218.38 66.3 218.53 66.41 218.66 66.53C218.79 66.66 218.9 66.8 218.99 66.96C219.11 66.81 219.25 66.67 219.4 66.55C219.55 66.43 219.72 66.32 219.9 66.24C220.07 66.15 220.26 66.09 220.45 66.05C220.64 66.01 220.84 65.99 221.03 65.99C222.45 65.99 223.17 66.96 223.17 68.37L223.17 72L221.86 72L221.86 68.69C221.86 67.8 221.47 67.24 220.6 67.24C220.42 67.24 220.23 67.28 220.06 67.35C219.89 67.43 219.74 67.54 219.62 67.68C219.49 67.82 219.4 67.99 219.35 68.17C219.29 68.35 219.28 68.54 219.3 68.72L219.3 72L218.01 72ZM225.81 69.44C225.81 69.55 225.82 69.65 225.84 69.75C225.87 69.86 225.9 69.96 225.95 70.05C225.99 70.15 226.05 70.24 226.11 70.32C226.18 70.4 226.25 70.48 226.33 70.54C226.42 70.61 226.5 70.68 226.6 70.73C226.69 70.78 226.79 70.83 226.89 70.87C226.99 70.9 227.09 70.93 227.2 70.95C227.31 70.97 227.41 70.97 227.52 70.97C227.68 70.98 227.85 70.97 228 70.93C228.16 70.89 228.31 70.83 228.45 70.75C228.59 70.67 228.72 70.57 228.83 70.45C228.94 70.34 229.03 70.2 229.11 70.06L230.05 70.69C229.93 70.91 229.77 71.11 229.6 71.29C229.42 71.47 229.22 71.62 229 71.75C228.78 71.87 228.54 71.96 228.29 72.02C228.05 72.09 227.8 72.11 227.54 72.11C227.34 72.11 227.14 72.1 226.94 72.06C226.74 72.02 226.54 71.97 226.36 71.89C226.17 71.82 225.99 71.73 225.82 71.62C225.65 71.51 225.49 71.38 225.34 71.24C225.2 71.09 225.07 70.94 224.96 70.77C224.85 70.6 224.75 70.42 224.68 70.23C224.6 70.04 224.55 69.85 224.51 69.65C224.47 69.45 224.46 69.25 224.46 69.05C224.46 68.85 224.48 68.65 224.51 68.46C224.55 68.26 224.6 68.07 224.67 67.88C224.75 67.7 224.84 67.52 224.94 67.36C225.05 67.19 225.17 67.03 225.31 66.89C225.44 66.75 225.59 66.62 225.76 66.5C225.92 66.39 226.09 66.29 226.27 66.22C226.45 66.14 226.64 66.08 226.84 66.05C227.03 66.01 227.23 66 227.42 66C227.62 65.99 227.81 66 228 66.03C228.2 66.06 228.39 66.12 228.57 66.19C228.75 66.26 228.92 66.35 229.08 66.46C229.24 66.57 229.39 66.7 229.52 66.84C229.65 66.99 229.77 67.15 229.87 67.33C229.97 67.5 230.05 67.68 230.11 67.87C230.18 68.06 230.23 68.25 230.25 68.45C230.28 68.64 230.29 68.84 230.28 69.04C230.28 69.07 230.28 69.11 230.28 69.14C230.28 69.18 230.28 69.21 230.28 69.24C230.28 69.28 230.27 69.31 230.27 69.35C230.27 69.38 230.26 69.41 230.26 69.45L225.81 69.44ZM227.42 67.13C227.24 67.12 227.05 67.15 226.87 67.21C226.7 67.28 226.53 67.37 226.39 67.49C226.25 67.61 226.13 67.76 226.04 67.93C225.95 68.09 225.9 68.27 225.87 68.46L228.95 68.46C228.94 68.27 228.89 68.08 228.81 67.91C228.73 67.74 228.61 67.59 228.47 67.47C228.33 67.35 228.16 67.25 227.98 67.19C227.8 67.13 227.61 67.11 227.42 67.13Z" />
				<path id="Path_95102" fill-rule="evenodd" class="shp2" d="M194.53 100.16C194.02 100.19 193.52 100.13 193.03 100C192.55 99.88 192.08 99.67 191.66 99.41C191.23 99.14 190.85 98.8 190.52 98.42C190.2 98.03 189.93 97.6 189.74 97.14L191.65 96.08C191.75 96.38 191.9 96.66 192.09 96.92C192.28 97.17 192.51 97.39 192.77 97.58C193.03 97.76 193.32 97.9 193.62 97.99C193.92 98.09 194.24 98.13 194.56 98.13C194.74 98.13 194.92 98.12 195.1 98.09C195.28 98.07 195.45 98.02 195.63 97.96C195.8 97.9 195.96 97.83 196.12 97.74C196.27 97.65 196.42 97.54 196.56 97.43C196.7 97.31 196.82 97.18 196.93 97.04C197.03 96.9 197.12 96.74 197.19 96.58C197.27 96.41 197.32 96.24 197.35 96.07C197.38 95.89 197.4 95.71 197.39 95.54C197.4 95.18 197.33 94.82 197.2 94.48C197.06 94.15 196.85 93.85 196.59 93.6C196.33 93.35 196.02 93.16 195.68 93.04C195.34 92.92 194.98 92.88 194.62 92.91C194.36 92.9 194.11 92.93 193.87 92.98C193.62 93.03 193.38 93.11 193.15 93.21C192.92 93.31 192.7 93.44 192.5 93.6C192.3 93.75 192.11 93.92 191.95 94.11L190.06 93.34L191.12 85.9L198.99 85.9L198.99 87.9L192.8 87.9L192.24 91.94C192.43 91.78 192.64 91.64 192.86 91.51C193.08 91.39 193.31 91.29 193.55 91.21C193.79 91.13 194.03 91.07 194.28 91.03C194.53 90.99 194.78 90.98 195.03 90.98C195.34 90.97 195.65 90.99 195.95 91.04C196.26 91.09 196.56 91.17 196.85 91.28C197.14 91.38 197.41 91.52 197.67 91.69C197.93 91.85 198.18 92.05 198.4 92.26C198.61 92.47 198.8 92.7 198.96 92.95C199.12 93.2 199.26 93.47 199.37 93.75C199.48 94.03 199.56 94.31 199.61 94.61C199.66 94.9 199.68 95.2 199.67 95.5C199.69 95.82 199.66 96.14 199.6 96.46C199.54 96.77 199.45 97.08 199.32 97.37C199.19 97.67 199.03 97.94 198.84 98.2C198.64 98.46 198.42 98.69 198.18 98.9C197.93 99.11 197.66 99.3 197.37 99.46C197.08 99.62 196.78 99.76 196.47 99.87C196.16 99.97 195.84 100.05 195.51 100.1C195.19 100.15 194.86 100.17 194.53 100.16ZM201.76 102.05C201.95 101.92 202.14 101.77 202.32 101.61C202.49 101.45 202.65 101.28 202.81 101.09C202.96 100.91 203.09 100.71 203.22 100.51C203.34 100.31 203.45 100.09 203.54 99.87C203.5 99.89 203.45 99.91 203.41 99.92C203.37 99.94 203.32 99.95 203.28 99.96C203.23 99.97 203.18 99.97 203.14 99.98C203.09 99.98 203.05 99.98 203 99.98C202.81 99.98 202.63 99.93 202.46 99.85C202.29 99.78 202.13 99.67 202 99.53C201.88 99.39 201.78 99.23 201.71 99.06C201.64 98.88 201.61 98.69 201.62 98.51C201.62 98.29 201.66 98.09 201.74 97.89C201.82 97.7 201.94 97.52 202.09 97.37C202.24 97.23 202.42 97.11 202.62 97.04C202.82 96.96 203.03 96.93 203.24 96.94C203.48 96.96 203.72 97.03 203.94 97.15C204.16 97.26 204.35 97.42 204.51 97.61C204.67 97.8 204.78 98.02 204.85 98.26C204.92 98.5 204.94 98.75 204.91 98.99L204.91 99.08C204.89 99.46 204.83 99.84 204.72 100.21C204.61 100.57 204.47 100.93 204.28 101.26C204.09 101.59 203.86 101.9 203.6 102.18C203.34 102.46 203.05 102.7 202.73 102.92L201.76 102.05ZM212.03 87.73C211.75 87.79 211.48 87.88 211.23 88C210.97 88.13 210.74 88.29 210.52 88.47C210.31 88.65 210.12 88.86 209.95 89.09C209.78 89.35 209.62 89.63 209.48 89.91C209.34 90.19 209.22 90.48 209.12 90.78C209.03 91.08 208.95 91.39 208.9 91.7C208.84 92.01 208.81 92.32 208.8 92.64L208.82 92.64C209.03 92.36 209.28 92.1 209.55 91.88C209.82 91.66 210.12 91.47 210.43 91.31C210.75 91.16 211.08 91.04 211.43 90.96C211.77 90.89 212.12 90.85 212.47 90.86C212.78 90.85 213.09 90.87 213.39 90.92C213.69 90.97 213.99 91.05 214.27 91.16C214.56 91.27 214.84 91.41 215.1 91.57C215.35 91.73 215.6 91.92 215.82 92.13C216.04 92.35 216.24 92.58 216.41 92.83C216.58 93.09 216.72 93.36 216.84 93.64C216.95 93.92 217.04 94.22 217.09 94.52C217.14 94.82 217.16 95.12 217.15 95.43C217.16 95.75 217.13 96.07 217.07 96.39C217.01 96.71 216.91 97.01 216.78 97.31C216.65 97.6 216.49 97.88 216.3 98.14C216.1 98.4 215.88 98.64 215.64 98.85C215.39 99.07 215.13 99.26 214.85 99.43C214.56 99.6 214.27 99.74 213.96 99.86C213.65 99.97 213.33 100.06 213 100.11C212.68 100.16 212.35 100.19 212.02 100.18C211.67 100.19 211.31 100.16 210.97 100.1C210.62 100.04 210.28 99.94 209.95 99.81C209.62 99.68 209.3 99.51 209.01 99.32C208.71 99.12 208.44 98.9 208.19 98.65C207.13 97.59 206.6 95.86 206.6 93.45C206.6 89.47 208.53 85.71 212.87 85.71C213.23 85.71 213.58 85.75 213.94 85.81C214.29 85.88 214.63 85.98 214.97 86.11C215.3 86.24 215.62 86.39 215.93 86.58C216.24 86.77 216.52 86.98 216.79 87.22L215.68 88.84C215.61 88.79 215.54 88.73 215.48 88.68C215.41 88.63 215.34 88.58 215.27 88.53C215.2 88.48 215.13 88.43 215.06 88.38C214.99 88.34 214.92 88.29 214.85 88.25C214.7 88.15 214.55 88.07 214.39 87.99C214.23 87.92 214.07 87.86 213.9 87.81C213.73 87.76 213.56 87.72 213.39 87.69C213.22 87.67 213.04 87.65 212.87 87.65C212.59 87.64 212.3 87.67 212.03 87.73ZM211.99 92.78C211.8 92.78 211.61 92.79 211.43 92.83C211.24 92.86 211.06 92.9 210.88 92.97C210.7 93.03 210.53 93.11 210.37 93.21C210.21 93.3 210.06 93.41 209.92 93.54C209.77 93.65 209.65 93.78 209.54 93.93C209.42 94.07 209.33 94.22 209.25 94.39C209.18 94.55 209.12 94.73 209.08 94.91C209.05 95.08 209.03 95.26 209.03 95.45C209.03 95.63 209.04 95.82 209.07 96C209.11 96.18 209.16 96.36 209.23 96.53C209.31 96.7 209.4 96.86 209.51 97.01C209.62 97.17 209.74 97.3 209.88 97.43C210.02 97.55 210.18 97.66 210.35 97.75C210.51 97.85 210.68 97.93 210.86 97.99C211.04 98.05 211.23 98.1 211.42 98.13C211.61 98.16 211.8 98.17 211.99 98.16C212.35 98.19 212.72 98.15 213.07 98.02C213.42 97.9 213.74 97.71 214.01 97.46C214.28 97.21 214.5 96.91 214.64 96.57C214.79 96.23 214.87 95.87 214.87 95.5C214.87 95.32 214.86 95.13 214.83 94.95C214.8 94.77 214.75 94.6 214.68 94.43C214.61 94.26 214.52 94.1 214.42 93.95C214.31 93.8 214.19 93.66 214.06 93.54C213.92 93.41 213.77 93.3 213.6 93.2C213.44 93.1 213.27 93.02 213.1 92.96C212.92 92.89 212.74 92.84 212.55 92.81C212.36 92.79 212.17 92.77 211.99 92.78ZM218.93 92.94C218.92 92.48 218.94 92.02 219.01 91.57C219.07 91.11 219.18 90.67 219.32 90.23C219.46 89.79 219.63 89.37 219.85 88.96C220.06 88.55 220.31 88.16 220.59 87.8C220.84 87.47 221.13 87.17 221.44 86.91C221.76 86.65 222.11 86.42 222.48 86.24C222.85 86.06 223.24 85.92 223.65 85.83C224.05 85.74 224.46 85.7 224.87 85.71C225.28 85.7 225.7 85.74 226.1 85.83C226.5 85.91 226.89 86.05 227.26 86.23C227.63 86.41 227.97 86.63 228.29 86.89C228.61 87.15 228.89 87.45 229.14 87.78C229.42 88.14 229.67 88.53 229.88 88.93C230.09 89.34 230.27 89.76 230.41 90.2C230.55 90.64 230.65 91.08 230.71 91.54C230.77 91.99 230.8 92.45 230.78 92.91C230.79 93.37 230.77 93.83 230.71 94.29C230.64 94.75 230.54 95.2 230.4 95.64C230.26 96.08 230.08 96.51 229.87 96.92C229.65 97.33 229.4 97.72 229.12 98.09C228.87 98.42 228.59 98.72 228.27 98.98C227.95 99.24 227.6 99.46 227.23 99.64C226.86 99.82 226.47 99.96 226.06 100.04C225.66 100.13 225.25 100.17 224.84 100.16C224.43 100.17 224.02 100.13 223.62 100.05C223.22 99.96 222.83 99.83 222.46 99.65C222.09 99.47 221.74 99.25 221.42 98.99C221.11 98.73 220.82 98.44 220.57 98.11C220.29 97.74 220.05 97.35 219.83 96.94C219.62 96.54 219.44 96.11 219.3 95.67C219.16 95.23 219.06 94.78 219 94.32C218.94 93.87 218.92 93.4 218.93 92.94ZM228.49 92.94C228.5 92.62 228.49 92.3 228.45 91.98C228.41 91.65 228.35 91.34 228.26 91.02C228.18 90.71 228.07 90.41 227.94 90.11C227.81 89.81 227.66 89.53 227.48 89.25C227.35 89.02 227.19 88.81 227 88.62C226.81 88.44 226.6 88.28 226.36 88.14C226.13 88.01 225.89 87.91 225.63 87.84C225.37 87.77 225.1 87.74 224.84 87.74C224.57 87.74 224.31 87.77 224.06 87.84C223.8 87.91 223.55 88.01 223.32 88.14C223.1 88.27 222.88 88.43 222.7 88.61C222.51 88.8 222.34 89.01 222.21 89.24C222.04 89.51 221.89 89.8 221.77 90.09C221.64 90.39 221.53 90.69 221.45 91C221.37 91.31 221.31 91.63 221.28 91.95C221.24 92.27 221.23 92.59 221.24 92.91C221.23 93.23 221.24 93.56 221.28 93.88C221.31 94.2 221.37 94.52 221.46 94.84C221.54 95.15 221.65 95.46 221.78 95.75C221.91 96.05 222.06 96.34 222.23 96.62C222.36 96.85 222.53 97.06 222.71 97.25C222.9 97.43 223.12 97.59 223.35 97.73C223.58 97.86 223.83 97.96 224.08 98.03C224.34 98.1 224.61 98.13 224.87 98.13C225.14 98.13 225.4 98.1 225.66 98.03C225.91 97.96 226.16 97.86 226.39 97.73C226.62 97.6 226.83 97.44 227.02 97.26C227.2 97.07 227.37 96.86 227.5 96.63C227.67 96.36 227.83 96.07 227.95 95.78C228.08 95.48 228.19 95.18 228.27 94.86C228.36 94.55 228.42 94.23 228.46 93.91C228.49 93.59 228.5 93.27 228.49 92.94ZM232.69 92.94C232.67 92.48 232.7 92.02 232.76 91.57C232.82 91.11 232.93 90.67 233.07 90.23C233.21 89.79 233.39 89.37 233.6 88.96C233.81 88.55 234.06 88.16 234.34 87.8C234.59 87.47 234.88 87.17 235.2 86.91C235.51 86.65 235.86 86.42 236.23 86.24C236.6 86.06 237 85.92 237.4 85.83C237.8 85.74 238.21 85.7 238.63 85.71C239.04 85.7 239.45 85.74 239.85 85.83C240.25 85.91 240.64 86.05 241.01 86.23C241.38 86.41 241.73 86.63 242.04 86.89C242.36 87.15 242.65 87.45 242.89 87.78C243.17 88.14 243.42 88.53 243.63 88.93C243.84 89.34 244.02 89.76 244.16 90.2C244.3 90.64 244.4 91.08 244.46 91.54C244.52 91.99 244.55 92.45 244.53 92.91C244.55 93.37 244.52 93.83 244.46 94.29C244.39 94.75 244.29 95.2 244.15 95.64C244.01 96.08 243.83 96.51 243.62 96.92C243.4 97.33 243.15 97.72 242.87 98.09C242.63 98.42 242.34 98.72 242.02 98.98C241.7 99.24 241.35 99.46 240.98 99.64C240.61 99.82 240.22 99.96 239.82 100.04C239.41 100.13 239 100.17 238.59 100.16C238.18 100.17 237.77 100.13 237.37 100.05C236.97 99.96 236.58 99.83 236.21 99.65C235.84 99.47 235.49 99.25 235.18 98.99C234.86 98.73 234.57 98.44 234.32 98.11C234.04 97.74 233.8 97.35 233.58 96.94C233.37 96.54 233.2 96.11 233.06 95.67C232.92 95.23 232.82 94.78 232.75 94.32C232.69 93.87 232.67 93.4 232.69 92.94ZM242.24 92.94C242.25 92.62 242.24 92.3 242.2 91.98C242.16 91.65 242.1 91.34 242.02 91.02C241.93 90.71 241.82 90.41 241.69 90.11C241.56 89.81 241.41 89.53 241.24 89.25C241.1 89.02 240.94 88.81 240.75 88.62C240.56 88.44 240.35 88.28 240.12 88.14C239.88 88.01 239.64 87.91 239.38 87.84C239.12 87.77 238.86 87.74 238.59 87.74C238.33 87.74 238.06 87.77 237.81 87.84C237.55 87.91 237.31 88.01 237.08 88.14C236.85 88.27 236.64 88.43 236.45 88.61C236.26 88.8 236.1 89.01 235.96 89.24C235.79 89.51 235.65 89.8 235.52 90.09C235.39 90.39 235.29 90.69 235.2 91C235.12 91.31 235.06 91.63 235.03 91.95C234.99 92.27 234.98 92.59 234.99 92.91C234.98 93.23 234.99 93.56 235.03 93.88C235.06 94.2 235.13 94.52 235.21 94.84C235.29 95.15 235.4 95.46 235.53 95.75C235.66 96.05 235.81 96.34 235.98 96.62C236.11 96.85 236.28 97.06 236.47 97.25C236.66 97.43 236.87 97.59 237.1 97.73C237.33 97.86 237.58 97.96 237.84 98.03C238.09 98.1 238.36 98.13 238.63 98.13C238.89 98.13 239.15 98.1 239.41 98.03C239.66 97.96 239.91 97.86 240.14 97.73C240.37 97.6 240.58 97.44 240.77 97.26C240.96 97.07 241.12 96.86 241.25 96.63C241.43 96.36 241.58 96.07 241.71 95.78C241.84 95.48 241.94 95.18 242.03 94.86C242.11 94.55 242.17 94.23 242.21 93.91C242.24 93.59 242.26 93.27 242.24 92.94Z" />
			</g>
			<g id="Group_39327">
				<path id="Path_95104" fill-rule="evenodd" class="shp2" d="M130.05 161.2L130.98 159.91L129.45 159.4L129.74 158.53L131.27 159.03L131.27 157.39L132.21 157.39L132.21 159.03L133.74 158.53L134.04 159.4L132.51 159.9L133.44 161.2L132.71 161.74L131.74 160.44L130.78 161.74L130.05 161.2ZM142.5 161.2L143.44 159.9L141.91 159.39L142.2 158.53L143.73 159.03L143.73 157.39L144.67 157.39L144.67 159.03L146.2 158.53L146.5 159.4L144.97 159.9L145.91 161.2L145.17 161.74L144.2 160.44L143.25 161.74L142.5 161.2ZM154.97 161.2L155.9 159.9L154.37 159.39L154.66 158.53L156.19 159.03L156.19 157.39L157.13 157.39L157.13 159.03L158.66 158.53L158.96 159.4L157.44 159.9L158.37 161.2L157.63 161.74L156.67 160.44L155.71 161.74L154.97 161.2ZM167.43 161.21L168.37 159.91L166.84 159.4L167.12 158.53L168.65 159.03L168.65 157.39L169.6 157.39L169.6 159.03L171.13 158.53L171.43 159.4L169.9 159.9L170.83 161.2L170.1 161.74L169.13 160.44L168.17 161.74L167.43 161.21ZM183.1 166.1C182.79 166.11 182.48 166.08 182.19 166C181.89 165.92 181.6 165.8 181.34 165.64C181.08 165.47 180.85 165.27 180.65 165.03C180.45 164.8 180.29 164.53 180.17 164.25L181.34 163.6C181.4 163.78 181.49 163.96 181.61 164.11C181.72 164.27 181.86 164.41 182.02 164.52C182.18 164.63 182.36 164.72 182.54 164.77C182.73 164.83 182.93 164.86 183.12 164.86C183.23 164.86 183.34 164.85 183.45 164.83C183.56 164.82 183.67 164.79 183.77 164.75C183.87 164.72 183.98 164.67 184.07 164.62C184.17 164.56 184.26 164.5 184.34 164.43C184.42 164.36 184.5 164.28 184.56 164.19C184.63 164.1 184.68 164.01 184.73 163.91C184.77 163.81 184.8 163.7 184.82 163.6C184.84 163.49 184.85 163.38 184.85 163.27C184.85 163.05 184.81 162.83 184.73 162.63C184.65 162.42 184.52 162.24 184.36 162.09C184.2 161.94 184.01 161.82 183.8 161.75C183.59 161.68 183.37 161.65 183.15 161.67C183 161.66 182.85 161.68 182.69 161.71C182.54 161.74 182.4 161.79 182.26 161.85C182.12 161.91 181.98 161.99 181.86 162.09C181.74 162.18 181.62 162.28 181.52 162.4L180.37 161.93L181.02 157.39L185.83 157.39L185.83 158.61L182.04 158.61L181.7 161.07C181.82 160.97 181.95 160.89 182.08 160.81C182.22 160.74 182.36 160.68 182.5 160.63C182.65 160.58 182.8 160.54 182.95 160.52C183.1 160.49 183.25 160.48 183.41 160.49C183.6 160.48 183.79 160.49 183.97 160.52C184.16 160.55 184.34 160.6 184.52 160.67C184.69 160.74 184.86 160.82 185.02 160.92C185.18 161.02 185.33 161.14 185.46 161.27C185.59 161.4 185.71 161.54 185.81 161.69C185.91 161.85 185.99 162.01 186.06 162.18C186.13 162.35 186.18 162.53 186.21 162.71C186.24 162.89 186.25 163.07 186.25 163.25C186.25 163.45 186.24 163.64 186.2 163.83C186.17 164.03 186.11 164.21 186.03 164.39C185.95 164.57 185.85 164.74 185.73 164.9C185.62 165.06 185.48 165.2 185.33 165.33C185.18 165.46 185.01 165.57 184.84 165.67C184.66 165.77 184.48 165.85 184.29 165.92C184.1 165.98 183.9 166.03 183.7 166.06C183.5 166.09 183.3 166.11 183.1 166.1ZM187.33 161.69C187.32 161.41 187.34 161.12 187.38 160.85C187.42 160.57 187.48 160.29 187.57 160.03C187.65 159.76 187.76 159.5 187.89 159.25C188.02 159 188.17 158.76 188.35 158.54C188.5 158.34 188.67 158.16 188.87 158C189.06 157.84 189.28 157.7 189.5 157.59C189.73 157.48 189.97 157.4 190.21 157.34C190.46 157.29 190.71 157.26 190.96 157.27C191.22 157.26 191.47 157.28 191.71 157.34C191.96 157.39 192.19 157.47 192.42 157.58C192.65 157.69 192.86 157.83 193.05 157.99C193.25 158.15 193.42 158.33 193.57 158.53C193.74 158.75 193.89 158.99 194.02 159.24C194.15 159.49 194.26 159.74 194.35 160.01C194.43 160.28 194.49 160.55 194.53 160.83C194.57 161.11 194.58 161.39 194.57 161.67C194.58 161.95 194.57 162.23 194.53 162.51C194.49 162.79 194.43 163.07 194.34 163.34C194.25 163.61 194.14 163.87 194.01 164.12C193.88 164.37 193.73 164.61 193.56 164.83C193.41 165.03 193.23 165.22 193.04 165.38C192.84 165.54 192.63 165.67 192.4 165.78C192.18 165.89 191.94 165.97 191.69 166.03C191.44 166.08 191.19 166.1 190.94 166.1C190.69 166.1 190.44 166.08 190.2 166.03C189.95 165.97 189.71 165.89 189.49 165.78C189.26 165.68 189.05 165.54 188.86 165.38C188.66 165.22 188.49 165.04 188.34 164.85C188.16 164.62 188.01 164.38 187.88 164.13C187.75 163.88 187.65 163.62 187.56 163.35C187.48 163.08 187.41 162.81 187.38 162.53C187.34 162.25 187.32 161.97 187.33 161.69L187.33 161.69ZM193.17 161.69C193.18 161.49 193.17 161.29 193.15 161.1C193.13 160.9 193.09 160.71 193.04 160.51C192.99 160.32 192.92 160.14 192.85 159.96C192.77 159.78 192.67 159.6 192.57 159.43C192.49 159.29 192.39 159.16 192.27 159.05C192.16 158.93 192.03 158.83 191.89 158.75C191.74 158.67 191.59 158.61 191.44 158.57C191.28 158.53 191.12 158.51 190.95 158.51C190.79 158.51 190.63 158.53 190.47 158.57C190.32 158.61 190.17 158.67 190.03 158.75C189.89 158.83 189.76 158.93 189.64 159.04C189.53 159.16 189.43 159.28 189.35 159.42C189.24 159.59 189.15 159.76 189.08 159.94C189 160.12 188.93 160.31 188.88 160.5C188.83 160.69 188.8 160.88 188.78 161.08C188.75 161.27 188.75 161.47 188.75 161.67C188.75 161.86 188.75 162.06 188.78 162.26C188.8 162.46 188.83 162.65 188.88 162.84C188.94 163.04 189 163.22 189.08 163.41C189.16 163.59 189.25 163.76 189.35 163.93C189.43 164.07 189.53 164.2 189.65 164.32C189.77 164.43 189.9 164.53 190.04 164.61C190.18 164.69 190.33 164.75 190.49 164.79C190.65 164.84 190.81 164.86 190.97 164.86C191.13 164.86 191.29 164.84 191.45 164.8C191.6 164.75 191.75 164.69 191.89 164.61C192.04 164.53 192.16 164.44 192.28 164.32C192.39 164.21 192.49 164.08 192.58 163.94C192.68 163.78 192.77 163.6 192.85 163.42C192.93 163.24 192.99 163.05 193.05 162.86C193.1 162.67 193.13 162.48 193.15 162.28C193.18 162.08 193.18 161.89 193.18 161.69L193.17 161.69ZM195.74 161.69C195.73 161.41 195.74 161.12 195.78 160.85C195.82 160.57 195.88 160.29 195.97 160.03C196.06 159.76 196.17 159.5 196.3 159.25C196.43 159 196.58 158.76 196.75 158.54C196.9 158.34 197.08 158.16 197.27 158C197.47 157.84 197.68 157.7 197.91 157.59C198.13 157.48 198.37 157.4 198.62 157.34C198.86 157.29 199.12 157.26 199.37 157.27C199.62 157.26 199.87 157.28 200.12 157.34C200.36 157.39 200.6 157.47 200.82 157.58C201.05 157.69 201.26 157.83 201.46 157.99C201.65 158.15 201.82 158.33 201.98 158.53C202.15 158.75 202.3 158.99 202.43 159.24C202.56 159.49 202.66 159.74 202.75 160.01C202.83 160.28 202.9 160.55 202.93 160.83C202.97 161.11 202.99 161.39 202.98 161.67C202.98 161.95 202.97 162.23 202.93 162.51C202.89 162.79 202.83 163.07 202.74 163.34C202.66 163.61 202.55 163.87 202.42 164.12C202.29 164.37 202.13 164.61 201.96 164.83C201.81 165.03 201.64 165.22 201.44 165.38C201.25 165.54 201.03 165.67 200.81 165.78C200.58 165.89 200.34 165.97 200.09 166.03C199.85 166.08 199.6 166.1 199.35 166.1C199.09 166.1 198.84 166.08 198.6 166.03C198.35 165.97 198.12 165.89 197.89 165.78C197.67 165.68 197.45 165.54 197.26 165.38C197.07 165.22 196.89 165.04 196.74 164.85C196.57 164.62 196.42 164.38 196.29 164.13C196.16 163.88 196.05 163.62 195.96 163.35C195.88 163.08 195.82 162.81 195.78 162.53C195.74 162.25 195.73 161.97 195.74 161.69L195.74 161.69ZM201.58 161.69C201.58 161.49 201.58 161.29 201.55 161.1C201.53 160.9 201.49 160.7 201.44 160.51C201.39 160.32 201.32 160.14 201.24 159.96C201.16 159.77 201.07 159.6 200.96 159.43C200.88 159.29 200.78 159.16 200.67 159.05C200.55 158.93 200.42 158.83 200.28 158.75C200.14 158.67 199.99 158.61 199.83 158.57C199.67 158.53 199.51 158.51 199.35 158.51C199.19 158.51 199.02 158.53 198.87 158.57C198.71 158.61 198.56 158.67 198.42 158.75C198.28 158.83 198.15 158.93 198.04 159.04C197.92 159.16 197.82 159.28 197.74 159.42C197.64 159.59 197.55 159.76 197.47 159.94C197.39 160.12 197.33 160.31 197.28 160.5C197.23 160.69 197.19 160.88 197.17 161.08C197.15 161.27 197.14 161.47 197.15 161.67C197.14 161.86 197.15 162.06 197.17 162.26C197.19 162.46 197.23 162.65 197.28 162.84C197.33 163.04 197.4 163.22 197.48 163.41C197.56 163.59 197.65 163.76 197.75 163.93C197.83 164.07 197.93 164.2 198.05 164.32C198.17 164.43 198.3 164.53 198.44 164.61C198.58 164.69 198.73 164.75 198.89 164.79C199.04 164.84 199.21 164.86 199.37 164.86C199.53 164.86 199.69 164.84 199.85 164.8C200 164.75 200.15 164.69 200.29 164.61C200.43 164.53 200.56 164.44 200.68 164.32C200.79 164.21 200.89 164.08 200.98 163.94C201.08 163.78 201.17 163.6 201.25 163.42C201.33 163.24 201.4 163.05 201.45 162.86C201.5 162.67 201.54 162.48 201.56 162.28C201.58 162.08 201.59 161.89 201.58 161.69L201.58 161.69ZM204.14 161.69C204.13 161.41 204.15 161.12 204.19 160.85C204.23 160.57 204.29 160.29 204.37 160.03C204.46 159.76 204.57 159.5 204.7 159.25C204.83 159 204.98 158.76 205.15 158.54C205.31 158.34 205.48 158.16 205.68 158C205.87 157.84 206.08 157.7 206.31 157.59C206.54 157.48 206.78 157.4 207.02 157.34C207.27 157.29 207.52 157.26 207.77 157.27C208.02 157.26 208.27 157.28 208.52 157.34C208.76 157.39 209 157.47 209.23 157.58C209.45 157.69 209.67 157.83 209.86 157.99C210.05 158.15 210.23 158.33 210.38 158.53C210.55 158.75 210.7 158.99 210.83 159.24C210.96 159.49 211.07 159.74 211.15 160.01C211.24 160.28 211.3 160.55 211.34 160.83C211.38 161.11 211.39 161.39 211.38 161.67C211.39 161.95 211.37 162.23 211.33 162.51C211.3 162.79 211.23 163.07 211.15 163.34C211.06 163.61 210.95 163.87 210.82 164.12C210.69 164.37 210.54 164.61 210.37 164.83C210.22 165.03 210.04 165.22 209.85 165.38C209.65 165.54 209.44 165.67 209.21 165.78C208.98 165.89 208.74 165.97 208.5 166.03C208.25 166.08 208 166.1 207.75 166.1C207.5 166.1 207.25 166.08 207 166.03C206.76 165.97 206.52 165.89 206.3 165.78C206.07 165.68 205.86 165.54 205.66 165.38C205.47 165.22 205.29 165.04 205.14 164.85C204.97 164.62 204.82 164.38 204.69 164.13C204.56 163.88 204.45 163.62 204.37 163.35C204.28 163.08 204.22 162.81 204.18 162.53C204.15 162.25 204.13 161.97 204.14 161.69L204.14 161.69ZM209.98 161.69C209.99 161.49 209.98 161.29 209.96 161.1C209.93 160.9 209.9 160.71 209.85 160.51C209.79 160.32 209.73 160.14 209.65 159.96C209.57 159.78 209.48 159.6 209.37 159.43C209.29 159.29 209.19 159.16 209.08 159.05C208.96 158.93 208.83 158.83 208.69 158.75C208.55 158.67 208.4 158.61 208.24 158.57C208.08 158.53 207.92 158.51 207.76 158.51C207.59 158.51 207.43 158.53 207.28 158.57C207.12 158.61 206.97 158.67 206.83 158.75C206.69 158.83 206.56 158.93 206.45 159.04C206.33 159.16 206.23 159.28 206.15 159.42C206.05 159.59 205.96 159.76 205.88 159.94C205.8 160.12 205.74 160.31 205.69 160.5C205.64 160.69 205.6 160.88 205.58 161.08C205.56 161.27 205.55 161.47 205.56 161.67C205.55 161.86 205.56 162.06 205.58 162.26C205.6 162.46 205.64 162.65 205.69 162.84C205.74 163.04 205.81 163.22 205.89 163.41C205.96 163.59 206.06 163.76 206.16 163.93C206.24 164.07 206.34 164.2 206.46 164.32C206.57 164.43 206.7 164.53 206.85 164.61C206.99 164.69 207.14 164.75 207.3 164.79C207.45 164.84 207.62 164.86 207.78 164.86C207.94 164.86 208.1 164.84 208.26 164.8C208.41 164.75 208.56 164.69 208.7 164.61C208.84 164.53 208.97 164.44 209.09 164.32C209.2 164.21 209.3 164.08 209.38 163.94C209.49 163.78 209.58 163.6 209.66 163.42C209.74 163.24 209.8 163.05 209.85 162.86C209.9 162.67 209.94 162.48 209.96 162.28C209.98 162.08 209.99 161.89 209.98 161.69L209.98 161.69Z" />
				<path id="Path_95105" fill-rule="evenodd" class="shp2" d="M139.48 206.22C139.02 206.24 138.57 206.22 138.12 206.16C137.67 206.1 137.22 206 136.79 205.87C136.35 205.74 135.93 205.57 135.52 205.37C135.11 205.17 134.72 204.94 134.35 204.67C134.03 204.45 133.74 204.19 133.48 203.9C133.22 203.6 133 203.28 132.83 202.93C132.65 202.58 132.51 202.21 132.42 201.83C132.34 201.45 132.29 201.06 132.3 200.67C132.3 198.35 133.55 196.75 136.05 195.82L136.05 195.8C135.58 195.67 135.13 195.47 134.72 195.19C134.32 194.92 133.96 194.58 133.67 194.19C133.38 193.8 133.15 193.36 133 192.89C132.86 192.43 132.79 191.94 132.8 191.45C132.79 191.07 132.83 190.7 132.92 190.33C133.01 189.96 133.14 189.61 133.31 189.27C133.49 188.94 133.7 188.62 133.95 188.34C134.2 188.06 134.49 187.81 134.8 187.6C135.14 187.36 135.49 187.14 135.86 186.96C136.24 186.77 136.62 186.62 137.02 186.49C137.42 186.37 137.82 186.28 138.23 186.22C138.64 186.16 139.06 186.14 139.48 186.15C139.89 186.14 140.31 186.16 140.72 186.22C141.14 186.27 141.55 186.36 141.94 186.49C142.34 186.61 142.73 186.77 143.11 186.95C143.48 187.14 143.84 187.35 144.18 187.6C144.49 187.81 144.78 188.06 145.03 188.34C145.28 188.62 145.5 188.93 145.67 189.27C145.84 189.6 145.97 189.96 146.06 190.33C146.15 190.69 146.18 191.07 146.18 191.45C146.19 191.94 146.12 192.42 145.97 192.89C145.82 193.35 145.6 193.79 145.31 194.18C145.02 194.57 144.67 194.91 144.26 195.18C143.86 195.46 143.42 195.67 142.95 195.8L142.95 195.82C145.43 196.72 146.68 198.3 146.68 200.55C146.68 200.95 146.64 201.35 146.55 201.74C146.46 202.13 146.33 202.51 146.15 202.87C145.97 203.23 145.74 203.56 145.48 203.86C145.22 204.17 144.93 204.44 144.6 204.67C144.23 204.94 143.84 205.17 143.43 205.37C143.02 205.57 142.6 205.74 142.17 205.87C141.73 206 141.29 206.1 140.83 206.16C140.38 206.22 139.93 206.24 139.48 206.22ZM135.85 191.75C135.85 191.95 135.87 192.16 135.92 192.36C135.96 192.56 136.03 192.75 136.12 192.94C136.21 193.12 136.33 193.29 136.46 193.45C136.59 193.61 136.74 193.75 136.9 193.87C137.08 194.01 137.28 194.13 137.48 194.24C137.69 194.35 137.9 194.43 138.12 194.5C138.34 194.57 138.56 194.63 138.79 194.66C139.02 194.69 139.25 194.7 139.48 194.7C141.57 194.7 143.13 193.45 143.13 191.75C143.13 190.05 141.57 188.8 139.48 188.8C137.35 188.8 135.85 190.02 135.85 191.75ZM135.38 200.42C135.38 200.64 135.41 200.86 135.46 201.07C135.51 201.28 135.59 201.49 135.69 201.68C135.79 201.87 135.92 202.05 136.06 202.22C136.21 202.38 136.37 202.52 136.55 202.65C136.76 202.8 136.98 202.94 137.22 203.05C137.45 203.17 137.69 203.27 137.94 203.34C138.19 203.42 138.44 203.47 138.7 203.51C138.96 203.54 139.22 203.56 139.48 203.55C139.73 203.56 139.99 203.54 140.25 203.51C140.51 203.47 140.76 203.42 141.01 203.35C141.26 203.27 141.5 203.18 141.73 203.07C141.96 202.95 142.19 202.82 142.4 202.67C142.59 202.55 142.76 202.41 142.91 202.25C143.06 202.08 143.19 201.9 143.3 201.7C143.41 201.51 143.49 201.3 143.54 201.08C143.6 200.87 143.62 200.65 143.63 200.42C143.62 200.2 143.6 199.99 143.54 199.77C143.49 199.56 143.4 199.36 143.3 199.17C143.19 198.97 143.06 198.8 142.91 198.64C142.76 198.48 142.59 198.34 142.4 198.22C142.19 198.07 141.97 197.94 141.73 197.82C141.5 197.7 141.26 197.61 141.01 197.53C140.76 197.45 140.51 197.4 140.25 197.36C139.99 197.33 139.73 197.32 139.48 197.32C139.21 197.32 138.95 197.33 138.69 197.36C138.44 197.39 138.18 197.45 137.93 197.52C137.68 197.6 137.43 197.69 137.2 197.8C136.96 197.92 136.74 198.05 136.52 198.2C136.34 198.32 136.18 198.47 136.04 198.63C135.89 198.79 135.77 198.97 135.67 199.17C135.57 199.36 135.49 199.56 135.44 199.78C135.39 199.99 135.37 200.21 135.38 200.42ZM149.73 208.85C150 208.66 150.26 208.46 150.5 208.23C150.74 208.01 150.97 207.77 151.18 207.51C151.39 207.26 151.58 206.99 151.75 206.71C151.92 206.42 152.07 206.13 152.2 205.82C152.14 205.85 152.08 205.87 152.02 205.89C151.96 205.91 151.9 205.93 151.83 205.94C151.77 205.95 151.71 205.96 151.64 205.97C151.58 205.97 151.51 205.97 151.45 205.97C151.19 205.97 150.93 205.91 150.69 205.8C150.46 205.69 150.24 205.54 150.06 205.35C149.88 205.16 149.74 204.93 149.65 204.69C149.56 204.45 149.52 204.19 149.52 203.92C149.52 203.63 149.58 203.34 149.69 203.07C149.8 202.8 149.97 202.55 150.18 202.35C150.39 202.15 150.64 201.99 150.92 201.88C151.19 201.78 151.48 201.74 151.77 201.75C153.07 201.75 154.1 202.92 154.1 204.6L154.1 204.72C154.07 205.25 153.98 205.78 153.84 206.29C153.69 206.79 153.48 207.28 153.22 207.74C152.96 208.21 152.64 208.63 152.28 209.02C151.92 209.41 151.52 209.75 151.07 210.05L149.73 208.85ZM156.32 196.2C156.3 195.56 156.34 194.92 156.43 194.29C156.52 193.66 156.66 193.03 156.85 192.42C157.05 191.82 157.3 191.23 157.59 190.66C157.89 190.09 158.24 189.56 158.63 189.05C158.97 188.59 159.37 188.18 159.81 187.81C160.25 187.45 160.74 187.14 161.25 186.89C161.77 186.64 162.31 186.45 162.87 186.32C163.43 186.2 164 186.14 164.57 186.15C165.15 186.14 165.72 186.19 166.27 186.31C166.83 186.43 167.37 186.62 167.89 186.87C168.4 187.12 168.88 187.43 169.32 187.79C169.76 188.15 170.16 188.57 170.5 189.02C170.89 189.53 171.23 190.07 171.53 190.63C171.82 191.19 172.07 191.78 172.26 192.39C172.45 192.99 172.6 193.62 172.68 194.25C172.77 194.88 172.8 195.51 172.77 196.15C172.8 196.79 172.76 197.43 172.67 198.07C172.59 198.71 172.44 199.34 172.25 199.95C172.05 200.56 171.81 201.15 171.51 201.72C171.21 202.29 170.87 202.84 170.48 203.35C170.13 203.81 169.73 204.22 169.29 204.58C168.85 204.95 168.36 205.25 167.85 205.5C167.33 205.75 166.79 205.94 166.23 206.06C165.67 206.18 165.1 206.24 164.52 206.22C163.96 206.24 163.39 206.18 162.83 206.06C162.27 205.94 161.73 205.76 161.22 205.51C160.71 205.26 160.23 204.96 159.78 204.6C159.34 204.24 158.95 203.83 158.6 203.37C158.21 202.86 157.87 202.32 157.57 201.76C157.28 201.19 157.03 200.59 156.84 199.98C156.65 199.37 156.5 198.75 156.42 198.11C156.33 197.48 156.3 196.84 156.32 196.2ZM169.54 194.85C169.49 194.41 169.4 193.97 169.28 193.53C169.16 193.1 169.01 192.67 168.83 192.26C168.65 191.85 168.44 191.45 168.2 191.07C168.01 190.75 167.79 190.46 167.52 190.2C167.26 189.94 166.97 189.71 166.64 189.53C166.32 189.35 165.98 189.21 165.62 189.11C165.26 189.02 164.89 188.97 164.52 188.97C164.16 188.97 163.79 189.02 163.44 189.11C163.08 189.2 162.74 189.34 162.42 189.52C162.1 189.71 161.81 189.93 161.55 190.19C161.29 190.44 161.06 190.73 160.88 191.05C160.64 191.43 160.44 191.83 160.26 192.24C160.08 192.65 159.94 193.07 159.82 193.5C159.71 193.93 159.63 194.37 159.58 194.81C159.53 195.26 159.51 195.7 159.52 196.15C159.51 196.6 159.53 197.05 159.58 197.5C159.63 197.95 159.71 198.39 159.83 198.83C159.95 199.26 160.09 199.69 160.27 200.1C160.45 200.52 160.66 200.92 160.9 201.3C161.09 201.62 161.31 201.91 161.58 202.17C161.84 202.43 162.13 202.66 162.46 202.84C162.78 203.03 163.12 203.17 163.48 203.26C163.84 203.35 164.21 203.4 164.57 203.4C164.94 203.4 165.31 203.35 165.66 203.26C166.02 203.17 166.36 203.03 166.68 202.85C167 202.67 167.29 202.44 167.55 202.19C167.81 201.93 168.04 201.64 168.22 201.32C168.46 200.94 168.67 200.55 168.85 200.13C169.03 199.72 169.18 199.3 169.3 198.86C169.41 198.43 169.5 197.99 169.55 197.54C169.6 197.1 169.62 196.65 169.6 196.2C169.61 195.75 169.59 195.3 169.54 194.85ZM175.43 196.2C175.4 195.56 175.44 194.92 175.53 194.29C175.62 193.66 175.76 193.03 175.95 192.42C176.15 191.82 176.4 191.23 176.69 190.66C176.99 190.09 177.34 189.56 177.73 189.05C178.07 188.59 178.47 188.18 178.91 187.81C179.35 187.45 179.84 187.14 180.35 186.89C180.87 186.64 181.41 186.45 181.97 186.32C182.53 186.2 183.1 186.14 183.68 186.15C184.25 186.14 184.82 186.19 185.37 186.31C185.93 186.43 186.47 186.62 186.99 186.87C187.5 187.12 187.98 187.43 188.42 187.79C188.86 188.15 189.26 188.57 189.6 189.02C189.99 189.53 190.33 190.07 190.63 190.63C190.92 191.19 191.17 191.78 191.36 192.39C191.55 192.99 191.7 193.62 191.78 194.25C191.87 194.88 191.9 195.51 191.88 196.15C191.9 196.79 191.86 197.43 191.77 198.07C191.69 198.71 191.54 199.34 191.35 199.95C191.15 200.56 190.91 201.15 190.61 201.72C190.31 202.29 189.97 202.84 189.57 203.35C189.23 203.81 188.83 204.22 188.39 204.58C187.95 204.95 187.46 205.25 186.95 205.5C186.43 205.75 185.89 205.94 185.33 206.06C184.77 206.18 184.2 206.24 183.63 206.22C183.06 206.24 182.49 206.18 181.93 206.06C181.37 205.94 180.83 205.76 180.32 205.51C179.81 205.26 179.33 204.96 178.88 204.6C178.44 204.24 178.05 203.83 177.7 203.37C177.31 202.86 176.97 202.32 176.67 201.76C176.38 201.19 176.13 200.59 175.94 199.98C175.75 199.37 175.6 198.75 175.52 198.11C175.43 197.48 175.4 196.84 175.43 196.2ZM188.64 194.85C188.59 194.41 188.5 193.97 188.38 193.53C188.26 193.1 188.11 192.67 187.93 192.26C187.75 191.85 187.54 191.45 187.3 191.07C187.11 190.75 186.89 190.46 186.62 190.2C186.36 189.94 186.07 189.71 185.74 189.53C185.42 189.35 185.08 189.21 184.72 189.11C184.36 189.02 183.99 188.97 183.63 188.97C183.26 188.97 182.89 189.02 182.54 189.11C182.18 189.2 181.84 189.34 181.52 189.52C181.2 189.71 180.91 189.93 180.65 190.19C180.39 190.44 180.16 190.73 179.98 191.05C179.74 191.43 179.54 191.83 179.36 192.24C179.18 192.65 179.04 193.07 178.92 193.5C178.81 193.93 178.73 194.37 178.68 194.81C178.63 195.26 178.61 195.7 178.63 196.15C178.61 196.6 178.63 197.05 178.68 197.5C178.73 197.95 178.81 198.39 178.93 198.83C179.05 199.26 179.19 199.69 179.37 200.1C179.55 200.52 179.76 200.92 180 201.3C180.19 201.62 180.41 201.91 180.68 202.17C180.94 202.43 181.23 202.66 181.56 202.84C181.88 203.03 182.22 203.17 182.58 203.26C182.94 203.35 183.31 203.4 183.68 203.4C184.04 203.4 184.41 203.35 184.76 203.26C185.12 203.17 185.46 203.03 185.78 202.85C186.1 202.67 186.39 202.44 186.65 202.19C186.91 201.93 187.14 201.64 187.32 201.32C187.56 200.94 187.77 200.55 187.95 200.13C188.13 199.72 188.28 199.3 188.4 198.86C188.51 198.43 188.6 197.99 188.65 197.54C188.7 197.1 188.72 196.65 188.7 196.2C188.71 195.75 188.69 195.3 188.64 194.85ZM194.52 196.2C194.5 195.56 194.54 194.92 194.63 194.29C194.72 193.66 194.86 193.03 195.05 192.42C195.25 191.82 195.5 191.23 195.79 190.66C196.09 190.09 196.44 189.56 196.83 189.05C197.17 188.59 197.57 188.18 198.01 187.81C198.45 187.45 198.94 187.14 199.45 186.89C199.97 186.64 200.51 186.45 201.07 186.32C201.63 186.2 202.2 186.14 202.78 186.15C203.35 186.14 203.92 186.19 204.47 186.31C205.03 186.43 205.57 186.62 206.09 186.87C206.6 187.12 207.08 187.43 207.52 187.79C207.96 188.15 208.36 188.57 208.7 189.02C209.09 189.53 209.43 190.07 209.73 190.63C210.02 191.19 210.27 191.78 210.46 192.39C210.65 192.99 210.8 193.62 210.88 194.25C210.97 194.88 211 195.51 210.97 196.15C211 196.79 210.96 197.43 210.87 198.07C210.79 198.71 210.64 199.34 210.45 199.95C210.25 200.56 210.01 201.15 209.71 201.72C209.41 202.29 209.07 202.84 208.67 203.35C208.33 203.81 207.93 204.22 207.49 204.58C207.05 204.95 206.56 205.25 206.05 205.5C205.53 205.75 204.99 205.94 204.43 206.06C203.87 206.18 203.3 206.24 202.72 206.22C202.16 206.24 201.59 206.18 201.03 206.06C200.47 205.94 199.93 205.76 199.42 205.51C198.91 205.26 198.43 204.96 197.98 204.6C197.54 204.24 197.15 203.83 196.8 203.37C196.41 202.86 196.07 202.32 195.77 201.76C195.48 201.19 195.23 200.59 195.04 199.98C194.85 199.37 194.7 198.75 194.62 198.11C194.53 197.48 194.5 196.84 194.52 196.2ZM207.74 194.85C207.69 194.41 207.6 193.97 207.48 193.53C207.36 193.1 207.21 192.67 207.03 192.26C206.85 191.85 206.64 191.45 206.4 191.07C206.21 190.75 205.99 190.46 205.72 190.2C205.46 189.94 205.17 189.71 204.84 189.53C204.52 189.35 204.18 189.21 203.82 189.11C203.46 189.02 203.09 188.97 202.73 188.97C202.36 188.97 201.99 189.02 201.64 189.11C201.28 189.2 200.94 189.34 200.62 189.52C200.3 189.71 200.01 189.93 199.75 190.19C199.49 190.44 199.26 190.73 199.07 191.05C198.84 191.43 198.64 191.83 198.46 192.24C198.28 192.65 198.14 193.07 198.02 193.5C197.91 193.93 197.83 194.37 197.78 194.81C197.73 195.26 197.71 195.7 197.73 196.15C197.71 196.6 197.73 197.05 197.78 197.5C197.83 197.95 197.91 198.39 198.03 198.83C198.15 199.26 198.29 199.69 198.47 200.1C198.65 200.52 198.86 200.92 199.1 201.3C199.29 201.62 199.51 201.91 199.78 202.17C200.04 202.43 200.33 202.66 200.66 202.84C200.98 203.03 201.32 203.17 201.68 203.26C202.04 203.35 202.41 203.4 202.77 203.4C203.14 203.4 203.51 203.35 203.86 203.26C204.22 203.17 204.56 203.03 204.88 202.85C205.2 202.67 205.49 202.44 205.75 202.19C206.01 201.93 206.24 201.64 206.43 201.32C206.66 200.94 206.87 200.55 207.05 200.13C207.23 199.72 207.38 199.3 207.5 198.86C207.61 198.43 207.7 197.99 207.75 197.54C207.8 197.1 207.82 196.65 207.8 196.2C207.81 195.75 207.79 195.3 207.74 194.85Z" />
			</g>
			<g id="Group_39325">
				<path id="Ellipse_4638" class="shp3" d="M151.5 106C137.95 106 127 95.05 127 81.5C127 67.95 137.95 57 151.5 57C165.05 57 176 67.95 176 81.5C176 95.05 165.05 106 151.5 106Z" />
				<g id="Group_39324">
					<path id="Path_95095" class="shp4" d="M151 73.94L151 89.8" />
					<path id="Path_95096" class="shp5" d="M158.23 82.97L151.15 90.05L144.06 82.97" />
				</g>
			</g>
		</g>
		<g id="Layer">
			<path id="Rectangle_16792-2" class="shp2" d="M32 148C32 141.37 37.37 136 44 136L170 136C176.63 136 182 141.37 182 148L182 172C182 178.63 176.63 184 170 184L44 184C37.37 184 32 178.63 32 172L32 148Z" />
		</g>
	</g>
</svg>