<svg version="1.2" baseProfile="tiny-ps" xmlns="http://www.w3.org/2000/svg" viewBox="0 0 297 286" width="297" height="286">
	<title>information-svg</title>
	<style>
		tspan { white-space:pre }
		.shp0 { fill: #ffffff } 
		.shp1 { fill: #e4e4e4 } 
		.shp2 { fill: #956dfe } 
	</style>
	<g id="information">
		<g id="Layer">
			<path id="Rectangle_16780-2" class="shp0" d="M37 49C37 42.37 42.37 37 49 37L248 37C254.63 37 260 42.37 260 49L260 150C260 156.63 254.63 162 248 162L49 162C42.37 162 37 156.63 37 150L37 49Z" />
		</g>
		<path id="Rectangle_16781" class="shp1" d="M76 62.5C76 60.57 77.57 59 79.5 59L164.5 59C166.43 59 168 60.57 168 62.5L168 62.5C168 64.43 166.43 66 164.5 66L79.5 66C77.57 66 76 64.43 76 62.5L76 62.5Z" />
		<path id="Rectangle_16782" class="shp1" d="M76 84.5C76 82.57 77.57 81 79.5 81L221.5 81C223.43 81 225 82.57 225 84.5L225 84.5C225 86.43 223.43 88 221.5 88L79.5 88C77.57 88 76 86.43 76 84.5L76 84.5Z" />
		<path id="Rectangle_16783" class="shp1" d="M76 108.5C76 106.57 77.57 105 79.5 105L137.5 105C139.43 105 141 106.57 141 108.5L141 108.5C141 110.43 139.43 112 137.5 112L79.5 112C77.57 112 76 110.43 76 108.5L76 108.5Z" />
		<path id="Rectangle_16784" class="shp1" d="M76 132.5C76 130.57 77.57 129 79.5 129L173.5 129C175.43 129 177 130.57 177 132.5L177 132.5C177 134.43 175.43 136 173.5 136L79.5 136C77.57 136 76 134.43 76 132.5L76 132.5Z" />
		<g id="Group_39356">
			<path id="Rectangle_16777" class="shp2" d="M37 191C37 183.27 43.27 177 51 177L246 177C253.73 177 260 183.27 260 191L260 235C260 242.73 253.73 249 246 249L51 249C43.27 249 37 242.73 37 235L37 191Z" />
			<path id="Rectangle_16778" class="shp0" d="M55 198C55 194.69 57.69 192 61 192L90 192C93.31 192 96 194.69 96 198L96 227C96 230.31 93.31 233 90 233L61 233C57.69 233 55 230.31 55 227L55 198Z" />
			<path id="Rectangle_16800" class="shp1" d="M66 209C66 205.69 68.69 203 72 203L79 203C82.31 203 85 205.69 85 209L85 216C85 219.31 82.31 222 79 222L72 222C68.69 222 66 219.31 66 216L66 209Z" />
			<path id="Rectangle_16779" class="shp0" d="M114 212C114 209.24 116.24 207 119 207L226 207C228.76 207 231 209.24 231 212L231 212C231 214.76 228.76 217 226 217L119 217C116.24 217 114 214.76 114 212L114 212Z" />
		</g>
	</g>
</svg>